<mxfile host="app.diagrams.net" agent="Mozilla/5.0 (Windows NT 10.0; Win64; x64) AppleWebKit/537.36 (KHTML, like Gecko) Chrome/136.0.0.0 Safari/537.36" version="27.0.8" pages="2">
  <diagram id="knEGHqX3nohK8rPGCksJ" name="statemanagement">
    <mxGraphModel dx="788" dy="498" grid="1" gridSize="10" guides="1" tooltips="1" connect="1" arrows="1" fold="1" page="1" pageScale="1" pageWidth="850" pageHeight="1100" math="0" shadow="0">
      <root>
        <mxCell id="0" />
        <mxCell id="1" parent="0" />
        <mxCell id="zM5li33pRKKw7gUoMu4j-5" style="edgeStyle=orthogonalEdgeStyle;rounded=0;orthogonalLoop=1;jettySize=auto;html=1;exitX=0.25;exitY=1;exitDx=0;exitDy=0;entryX=0.25;entryY=0;entryDx=0;entryDy=0;" edge="1" parent="1" source="zM5li33pRKKw7gUoMu4j-1" target="zM5li33pRKKw7gUoMu4j-4">
          <mxGeometry relative="1" as="geometry" />
        </mxCell>
        <mxCell id="zM5li33pRKKw7gUoMu4j-7" style="edgeStyle=orthogonalEdgeStyle;rounded=0;orthogonalLoop=1;jettySize=auto;html=1;exitX=1;exitY=0.25;exitDx=0;exitDy=0;entryX=0;entryY=0.25;entryDx=0;entryDy=0;" edge="1" parent="1" source="zM5li33pRKKw7gUoMu4j-1" target="zM5li33pRKKw7gUoMu4j-3">
          <mxGeometry relative="1" as="geometry" />
        </mxCell>
        <mxCell id="zM5li33pRKKw7gUoMu4j-1" value="Node" style="rounded=0;whiteSpace=wrap;html=1;" vertex="1" parent="1">
          <mxGeometry x="200" y="120" width="120" height="80" as="geometry" />
        </mxCell>
        <mxCell id="zM5li33pRKKw7gUoMu4j-2" value="&lt;font style=&quot;font-size: 20px;&quot;&gt;Dependency&lt;/font&gt;" style="text;html=1;align=center;verticalAlign=middle;whiteSpace=wrap;rounded=0;" vertex="1" parent="1">
          <mxGeometry x="200" y="40" width="120" height="40" as="geometry" />
        </mxCell>
        <mxCell id="zM5li33pRKKw7gUoMu4j-8" style="edgeStyle=orthogonalEdgeStyle;rounded=0;orthogonalLoop=1;jettySize=auto;html=1;exitX=0;exitY=0.75;exitDx=0;exitDy=0;entryX=1;entryY=0.75;entryDx=0;entryDy=0;" edge="1" parent="1" source="zM5li33pRKKw7gUoMu4j-3" target="zM5li33pRKKw7gUoMu4j-1">
          <mxGeometry relative="1" as="geometry" />
        </mxCell>
        <mxCell id="zM5li33pRKKw7gUoMu4j-9" style="edgeStyle=orthogonalEdgeStyle;rounded=0;orthogonalLoop=1;jettySize=auto;html=1;exitX=0.25;exitY=1;exitDx=0;exitDy=0;entryX=1;entryY=0.25;entryDx=0;entryDy=0;" edge="1" parent="1" source="zM5li33pRKKw7gUoMu4j-3" target="zM5li33pRKKw7gUoMu4j-4">
          <mxGeometry relative="1" as="geometry" />
        </mxCell>
        <mxCell id="zM5li33pRKKw7gUoMu4j-3" value="Context" style="rounded=0;whiteSpace=wrap;html=1;" vertex="1" parent="1">
          <mxGeometry x="440" y="120" width="120" height="80" as="geometry" />
        </mxCell>
        <mxCell id="zM5li33pRKKw7gUoMu4j-6" style="edgeStyle=orthogonalEdgeStyle;rounded=0;orthogonalLoop=1;jettySize=auto;html=1;exitX=0.75;exitY=0;exitDx=0;exitDy=0;entryX=0.75;entryY=1;entryDx=0;entryDy=0;" edge="1" parent="1" source="zM5li33pRKKw7gUoMu4j-4" target="zM5li33pRKKw7gUoMu4j-1">
          <mxGeometry relative="1" as="geometry" />
        </mxCell>
        <mxCell id="zM5li33pRKKw7gUoMu4j-10" style="edgeStyle=orthogonalEdgeStyle;rounded=0;orthogonalLoop=1;jettySize=auto;html=1;exitX=1;exitY=0.75;exitDx=0;exitDy=0;entryX=0.75;entryY=1;entryDx=0;entryDy=0;" edge="1" parent="1" source="zM5li33pRKKw7gUoMu4j-4" target="zM5li33pRKKw7gUoMu4j-3">
          <mxGeometry relative="1" as="geometry" />
        </mxCell>
        <mxCell id="zM5li33pRKKw7gUoMu4j-4" value="Dependencies" style="rounded=0;whiteSpace=wrap;html=1;" vertex="1" parent="1">
          <mxGeometry x="200" y="240" width="120" height="80" as="geometry" />
        </mxCell>
      </root>
    </mxGraphModel>
  </diagram>
  <diagram name="Page-1" id="oAUSVaMNJC7QEBEZ56od">
    <mxGraphModel dx="1022" dy="597" grid="1" gridSize="10" guides="1" tooltips="1" connect="1" arrows="1" fold="1" page="1" pageScale="1" pageWidth="850" pageHeight="1100" math="0" shadow="0">
      <root>
        <mxCell id="0" />
        <mxCell id="1" parent="0" />
        <mxCell id="2TUE7At9UKRF5xtL__KT-11" style="edgeStyle=orthogonalEdgeStyle;rounded=0;orthogonalLoop=1;jettySize=auto;html=1;exitX=0.5;exitY=1;exitDx=0;exitDy=0;entryX=1;entryY=0.5;entryDx=0;entryDy=0;" edge="1" parent="1" source="2TUE7At9UKRF5xtL__KT-1" target="2TUE7At9UKRF5xtL__KT-8">
          <mxGeometry relative="1" as="geometry" />
        </mxCell>
        <mxCell id="2TUE7At9UKRF5xtL__KT-21" style="edgeStyle=orthogonalEdgeStyle;rounded=0;orthogonalLoop=1;jettySize=auto;html=1;exitX=1;exitY=0.75;exitDx=0;exitDy=0;entryX=0;entryY=0.75;entryDx=0;entryDy=0;" edge="1" parent="1" source="2TUE7At9UKRF5xtL__KT-1" target="2TUE7At9UKRF5xtL__KT-16">
          <mxGeometry relative="1" as="geometry" />
        </mxCell>
        <mxCell id="2TUE7At9UKRF5xtL__KT-27" style="edgeStyle=orthogonalEdgeStyle;rounded=0;orthogonalLoop=1;jettySize=auto;html=1;exitX=0;exitY=0.25;exitDx=0;exitDy=0;entryX=1;entryY=0.25;entryDx=0;entryDy=0;" edge="1" parent="1" source="2TUE7At9UKRF5xtL__KT-1" target="2TUE7At9UKRF5xtL__KT-10">
          <mxGeometry relative="1" as="geometry" />
        </mxCell>
        <mxCell id="2TUE7At9UKRF5xtL__KT-35" style="edgeStyle=orthogonalEdgeStyle;rounded=0;orthogonalLoop=1;jettySize=auto;html=1;exitX=0.75;exitY=0;exitDx=0;exitDy=0;entryX=0.25;entryY=0;entryDx=0;entryDy=0;" edge="1" parent="1" source="2TUE7At9UKRF5xtL__KT-1" target="2TUE7At9UKRF5xtL__KT-16">
          <mxGeometry relative="1" as="geometry">
            <Array as="points">
              <mxPoint x="450" y="280" />
              <mxPoint x="710" y="280" />
            </Array>
          </mxGeometry>
        </mxCell>
        <mxCell id="2TUE7At9UKRF5xtL__KT-1" value="Node" style="rounded=0;whiteSpace=wrap;html=1;" vertex="1" parent="1">
          <mxGeometry x="360" y="400" width="120" height="80" as="geometry" />
        </mxCell>
        <mxCell id="2TUE7At9UKRF5xtL__KT-14" style="edgeStyle=orthogonalEdgeStyle;rounded=0;orthogonalLoop=1;jettySize=auto;html=1;exitX=0;exitY=0.5;exitDx=0;exitDy=0;entryX=0.5;entryY=1;entryDx=0;entryDy=0;" edge="1" parent="1" source="2TUE7At9UKRF5xtL__KT-8" target="2TUE7At9UKRF5xtL__KT-10">
          <mxGeometry relative="1" as="geometry" />
        </mxCell>
        <mxCell id="2TUE7At9UKRF5xtL__KT-8" value="Conditional Probability P(Node | Other Nodes = State)" style="rounded=0;whiteSpace=wrap;html=1;" vertex="1" parent="1">
          <mxGeometry x="240" y="520" width="120" height="80" as="geometry" />
        </mxCell>
        <mxCell id="2TUE7At9UKRF5xtL__KT-24" style="edgeStyle=orthogonalEdgeStyle;rounded=0;orthogonalLoop=1;jettySize=auto;html=1;exitX=0;exitY=0.5;exitDx=0;exitDy=0;entryX=0;entryY=0.5;entryDx=0;entryDy=0;" edge="1" parent="1" source="2TUE7At9UKRF5xtL__KT-10" target="2TUE7At9UKRF5xtL__KT-23">
          <mxGeometry relative="1" as="geometry">
            <Array as="points">
              <mxPoint x="10" y="440" />
              <mxPoint x="10" y="280" />
            </Array>
          </mxGeometry>
        </mxCell>
        <mxCell id="2TUE7At9UKRF5xtL__KT-29" style="edgeStyle=orthogonalEdgeStyle;rounded=0;orthogonalLoop=1;jettySize=auto;html=1;exitX=1;exitY=0.75;exitDx=0;exitDy=0;entryX=0;entryY=0.75;entryDx=0;entryDy=0;" edge="1" parent="1" source="2TUE7At9UKRF5xtL__KT-10" target="2TUE7At9UKRF5xtL__KT-1">
          <mxGeometry relative="1" as="geometry" />
        </mxCell>
        <mxCell id="2TUE7At9UKRF5xtL__KT-10" value="Other Node (Dependency to Node)" style="rounded=0;whiteSpace=wrap;html=1;" vertex="1" parent="1">
          <mxGeometry x="60" y="400" width="120" height="80" as="geometry" />
        </mxCell>
        <mxCell id="2TUE7At9UKRF5xtL__KT-12" value="Has" style="text;html=1;align=center;verticalAlign=middle;resizable=0;points=[];autosize=1;strokeColor=none;fillColor=none;" vertex="1" parent="1">
          <mxGeometry x="395" y="570" width="40" height="30" as="geometry" />
        </mxCell>
        <mxCell id="2TUE7At9UKRF5xtL__KT-13" value="Which causes" style="text;html=1;align=center;verticalAlign=middle;resizable=0;points=[];autosize=1;strokeColor=none;fillColor=none;" vertex="1" parent="1">
          <mxGeometry x="120" y="570" width="100" height="30" as="geometry" />
        </mxCell>
        <mxCell id="2TUE7At9UKRF5xtL__KT-22" style="edgeStyle=orthogonalEdgeStyle;rounded=0;orthogonalLoop=1;jettySize=auto;html=1;exitX=0;exitY=0.25;exitDx=0;exitDy=0;entryX=1;entryY=0.25;entryDx=0;entryDy=0;" edge="1" parent="1" source="2TUE7At9UKRF5xtL__KT-16" target="2TUE7At9UKRF5xtL__KT-1">
          <mxGeometry relative="1" as="geometry" />
        </mxCell>
        <mxCell id="2TUE7At9UKRF5xtL__KT-37" style="edgeStyle=orthogonalEdgeStyle;rounded=0;orthogonalLoop=1;jettySize=auto;html=1;exitX=0.75;exitY=0;exitDx=0;exitDy=0;entryX=0.25;entryY=0;entryDx=0;entryDy=0;" edge="1" parent="1" source="2TUE7At9UKRF5xtL__KT-16" target="2TUE7At9UKRF5xtL__KT-1">
          <mxGeometry relative="1" as="geometry">
            <Array as="points">
              <mxPoint x="770" y="240" />
              <mxPoint x="390" y="240" />
            </Array>
          </mxGeometry>
        </mxCell>
        <mxCell id="2TUE7At9UKRF5xtL__KT-16" value="Context" style="rounded=0;whiteSpace=wrap;html=1;" vertex="1" parent="1">
          <mxGeometry x="680" y="400" width="120" height="80" as="geometry" />
        </mxCell>
        <mxCell id="2TUE7At9UKRF5xtL__KT-18" value="What&#39;s your dependency?" style="text;html=1;align=center;verticalAlign=middle;resizable=0;points=[];autosize=1;strokeColor=none;fillColor=none;" vertex="1" parent="1">
          <mxGeometry x="505" y="390" width="160" height="30" as="geometry" />
        </mxCell>
        <mxCell id="2TUE7At9UKRF5xtL__KT-19" value="Other node" style="text;html=1;align=center;verticalAlign=middle;resizable=0;points=[];autosize=1;strokeColor=none;fillColor=none;" vertex="1" parent="1">
          <mxGeometry x="545" y="460" width="80" height="30" as="geometry" />
        </mxCell>
        <mxCell id="2TUE7At9UKRF5xtL__KT-20" value="Only if P(Node | Other Nodes) = P(Nodes)" style="text;html=1;align=center;verticalAlign=middle;resizable=0;points=[];autosize=1;strokeColor=none;fillColor=none;" vertex="1" parent="1">
          <mxGeometry x="55" y="360" width="250" height="30" as="geometry" />
        </mxCell>
        <mxCell id="2TUE7At9UKRF5xtL__KT-23" value="Depended States" style="rounded=0;whiteSpace=wrap;html=1;" vertex="1" parent="1">
          <mxGeometry x="60" y="240" width="120" height="80" as="geometry" />
        </mxCell>
        <mxCell id="2TUE7At9UKRF5xtL__KT-25" value="DependencyCheck()&lt;div&gt;&lt;br&gt;&lt;/div&gt;" style="text;html=1;align=center;verticalAlign=middle;resizable=0;points=[];autosize=1;strokeColor=none;fillColor=none;" vertex="1" parent="1">
          <mxGeometry x="520" y="360" width="130" height="40" as="geometry" />
        </mxCell>
        <mxCell id="2TUE7At9UKRF5xtL__KT-28" value="Is the depended state exists?" style="text;html=1;align=center;verticalAlign=middle;resizable=0;points=[];autosize=1;strokeColor=none;fillColor=none;" vertex="1" parent="1">
          <mxGeometry x="180" y="390" width="180" height="30" as="geometry" />
        </mxCell>
        <mxCell id="2TUE7At9UKRF5xtL__KT-30" value="Yes/no" style="text;html=1;align=center;verticalAlign=middle;resizable=0;points=[];autosize=1;strokeColor=none;fillColor=none;" vertex="1" parent="1">
          <mxGeometry x="240" y="460" width="60" height="30" as="geometry" />
        </mxCell>
        <mxCell id="2TUE7At9UKRF5xtL__KT-34" value="Joint Set" style="rounded=0;whiteSpace=wrap;html=1;" vertex="1" parent="1">
          <mxGeometry x="680" y="520" width="120" height="80" as="geometry" />
        </mxCell>
        <mxCell id="2TUE7At9UKRF5xtL__KT-36" value="Do the joints for this exist?" style="text;html=1;align=center;verticalAlign=middle;resizable=0;points=[];autosize=1;strokeColor=none;fillColor=none;" vertex="1" parent="1">
          <mxGeometry x="505" y="280" width="160" height="30" as="geometry" />
        </mxCell>
        <mxCell id="2TUE7At9UKRF5xtL__KT-38" value="Yes/No" style="text;html=1;align=center;verticalAlign=middle;resizable=0;points=[];autosize=1;strokeColor=none;fillColor=none;" vertex="1" parent="1">
          <mxGeometry x="555" y="210" width="60" height="30" as="geometry" />
        </mxCell>
        <mxCell id="2TUE7At9UKRF5xtL__KT-39" value="Known.Conditional.Find.Joint()&lt;div&gt;&lt;br&gt;&lt;/div&gt;" style="text;html=1;align=center;verticalAlign=middle;resizable=0;points=[];autosize=1;strokeColor=none;fillColor=none;" vertex="1" parent="1">
          <mxGeometry x="490" y="160" width="190" height="40" as="geometry" />
        </mxCell>
      </root>
    </mxGraphModel>
  </diagram>
</mxfile>
